<?xml version="1.0" standalone="no"?>
<!DOCTYPE svg PUBLIC "-//W3C//DTD SVG 20010904//EN"
 "http://www.w3.org/TR/2001/REC-SVG-20010904/DTD/svg10.dtd">
<svg version="1.0" xmlns="http://www.w3.org/2000/svg"
 width="840.000000pt" height="618.000000pt" viewBox="0 0 840.000000 618.000000"
 preserveAspectRatio="xMidYMid meet">

<g transform="translate(0.000000,618.000000) scale(0.100000,-0.100000)"
fill="#000000" stroke="none">
<path d="M6295 5770 c-11 -4 -31 -19 -43 -33 -27 -29 -25 -56 11 -137 37 -85
105 -317 118 -400 15 -105 6 -424 -16 -530 -42 -210 -112 -376 -283 -678 -96
-169 -134 -225 -227 -335 -144 -170 -268 -288 -431 -412 -181 -137 -448 -388
-517 -483 -63 -89 -109 -178 -125 -242 -45 -185 -7 -357 93 -429 25 -18 52
-45 60 -61 17 -33 20 -97 5 -134 -15 -41 -89 -115 -167 -167 -116 -78 -140
-123 -152 -282 -6 -90 -7 -93 -54 -154 -37 -49 -52 -79 -65 -134 -15 -65 -22
-76 -75 -128 -61 -58 -117 -135 -117 -158 0 -8 11 -25 25 -38 21 -22 33 -25
100 -25 41 0 121 9 178 21 83 17 110 19 143 10 66 -18 83 -45 106 -168 29
-156 45 -206 71 -235 32 -34 98 -46 132 -24 18 12 49 16 113 16 83 0 92 2 130
30 23 17 42 35 42 40 0 16 46 12 85 -7 31 -15 42 -15 83 -4 26 7 59 24 74 38
32 31 58 101 58 159 0 23 6 46 13 51 6 6 40 13 74 16 143 12 194 91 171 264
-13 100 -9 117 27 103 58 -22 175 0 175 33 0 8 9 22 19 31 24 22 41 96 41 179
l0 62 162 60 c168 62 232 97 349 192 109 87 186 208 173 270 -4 22 4 49 34
109 44 87 75 212 90 364 6 59 22 129 42 185 17 50 38 123 45 163 8 39 25 93
39 120 61 121 104 311 92 407 -10 75 -25 115 -63 169 l-35 49 6 184 6 185 -56
141 c-31 78 -65 159 -75 179 -21 41 -24 135 -10 261 14 133 -40 309 -154 491
-27 43 -54 104 -66 147 -11 41 -34 96 -50 124 -17 27 -48 97 -68 155 -51 145
-157 293 -265 372 -43 31 -42 30 -71 18z m171 -282 c28 -29 60 -67 72 -83 36
-54 63 -152 69 -258 5 -86 8 -97 19 -82 8 10 17 33 20 52 3 18 10 33 14 33 12
0 28 -105 35 -225 6 -98 5 -116 -15 -167 -12 -32 -39 -81 -61 -110 -35 -47
-48 -78 -34 -78 3 0 23 12 45 26 22 15 43 24 47 20 4 -3 -6 -68 -21 -143 -30
-151 -51 -193 -131 -260 -25 -20 -45 -41 -45 -45 0 -11 47 8 81 33 l29 20 0
-32 c0 -45 -114 -256 -143 -265 -27 -8 -66 -36 -67 -47 0 -4 13 -1 29 8 19 9
32 11 36 5 3 -5 -15 -51 -41 -102 -52 -103 -116 -172 -188 -207 -77 -36 -71
-62 8 -35 77 27 74 15 -33 -118 -43 -53 -73 -80 -101 -92 -69 -28 -71 -23 -64
139 5 100 4 144 -4 149 -14 9 -19 -15 -26 -122 -7 -103 -39 -182 -123 -307
-120 -178 -438 -452 -564 -485 -71 -19 -106 -46 -125 -96 -25 -65 -8 -76 45
-28 53 47 89 49 132 8 102 -96 63 -273 -69 -312 -25 -8 -42 -19 -42 -27 0 -12
15 -15 75 -13 70 2 76 1 105 -27 30 -29 70 -118 70 -156 0 -26 -53 -129 -78
-152 -19 -17 -23 -17 -73 -3 -45 14 -55 14 -67 2 -17 -17 -6 -43 44 -98 34
-38 54 -91 54 -144 0 -54 -62 -125 -121 -139 -23 -6 -29 -1 -52 38 -33 56 -54
74 -69 59 -8 -8 -1 -33 26 -93 64 -139 59 -216 -14 -254 -36 -19 -54 -12 -118
47 -71 65 -91 35 -46 -65 21 -46 28 -78 29 -123 0 -68 -9 -84 -61 -109 -45
-21 -78 -13 -101 25 -23 40 -37 38 -29 -5 10 -50 56 -188 66 -199 17 -17 22 1
11 40 -18 64 -4 50 43 -45 26 -50 49 -91 52 -91 4 0 4 30 0 68 -6 64 -5 66 9
35 16 -37 60 -231 70 -311 6 -47 4 -56 -16 -78 -29 -31 -49 -30 -82 4 -33 34
-50 84 -66 187 -14 89 -54 200 -82 230 -25 26 -105 24 -184 -5 -111 -41 -260
-55 -271 -25 -16 40 41 124 102 150 28 11 34 20 43 67 15 71 64 172 105 218
31 35 33 41 39 138 8 139 20 160 128 233 99 66 149 114 186 177 23 39 25 51
21 130 -5 111 -26 156 -76 173 -48 15 -60 25 -81 68 -35 69 -43 134 -25 218
31 152 88 259 208 393 77 85 107 111 366 317 358 285 441 366 599 588 138 193
304 510 365 695 72 222 114 482 102 636 -9 128 -45 316 -76 410 -16 48 -27 90
-24 95 9 15 56 -17 110 -73z m326 -616 c72 -107 128 -263 128 -351 0 -87 -34
-179 -102 -279 -39 -56 -28 -66 20 -19 55 54 66 50 58 -22 -9 -82 -51 -232
-81 -290 -13 -27 -45 -71 -70 -97 -24 -26 -43 -50 -40 -52 2 -2 29 10 60 27
66 37 65 44 12 -94 -31 -82 -66 -126 -176 -218 -25 -20 -42 -39 -39 -42 3 -3
24 2 47 11 23 9 44 14 47 12 5 -6 -58 -128 -89 -171 -11 -16 -52 -53 -91 -82
-39 -29 -77 -60 -85 -69 -12 -14 -11 -16 9 -16 13 0 31 7 41 16 69 62 -43
-114 -133 -208 -30 -32 -42 -38 -77 -38 -22 0 -41 4 -41 9 0 5 28 47 62 93 34
45 71 99 81 118 19 33 17 31 -34 -18 -98 -94 -90 -55 19 98 79 110 167 270
160 290 -2 6 -46 -53 -98 -132 -52 -78 -101 -144 -107 -146 -24 -7 -13 39 23
95 178 279 317 596 389 889 38 151 48 252 14 129 -25 -88 -28 -99 -34 -94 -2
3 5 45 16 94 29 133 47 261 60 438 7 86 16 157 20 157 3 0 18 -17 31 -38z
m-180 -838 c-60 -167 -117 -295 -202 -454 -128 -237 -154 -283 -167 -288 -29
-9 -9 39 63 153 96 152 198 361 274 561 33 86 61 159 61 163 1 3 3 -1 6 -10 2
-9 -14 -65 -35 -125z m396 -18 c12 -35 26 -101 32 -147 14 -105 -3 -191 -55
-286 -19 -35 -32 -63 -28 -63 3 0 21 10 40 21 19 12 36 19 39 16 10 -10 -34
-164 -69 -246 -42 -96 -84 -151 -149 -192 -26 -17 -48 -35 -48 -40 0 -14 38
-11 70 6 18 10 30 11 30 5 0 -19 -37 -84 -84 -146 -36 -48 -61 -69 -116 -98
-38 -21 -70 -41 -70 -47 0 -5 15 -9 34 -9 19 0 38 -5 42 -11 15 -25 -141 -149
-188 -149 -28 0 -21 -17 12 -29 17 -5 30 -12 30 -15 0 -10 -213 -196 -225
-196 -9 0 -4 21 17 71 16 40 40 114 53 166 15 58 33 106 49 126 14 18 51 64
83 104 61 75 102 138 86 132 -5 -2 -47 -47 -93 -99 -45 -52 -87 -96 -91 -98
-23 -9 -2 26 71 120 164 213 279 404 349 578 49 125 46 142 -6 30 -97 -206
-250 -438 -391 -590 -33 -36 -62 -63 -65 -60 -3 3 37 64 89 135 129 175 195
283 266 439 83 183 143 346 184 505 19 75 37 142 40 150 8 26 40 -16 62 -83z
m109 -665 c23 -54 28 -186 9 -261 -26 -107 -98 -241 -156 -293 -47 -42 -62
-67 -41 -67 5 0 22 10 38 23 72 58 67 57 59 8 -10 -67 -74 -179 -136 -241 -42
-42 -72 -62 -127 -84 -40 -15 -73 -32 -73 -37 0 -5 20 -9 45 -9 52 0 55 -7 20
-65 -30 -51 -119 -114 -189 -132 -27 -7 -51 -14 -53 -17 -2 -2 10 -14 27 -26
35 -25 33 -31 -22 -71 -32 -22 -52 -29 -89 -29 -49 0 -70 -13 -50 -33 6 -6 11
-16 11 -22 0 -13 -98 -70 -106 -62 -2 2 0 16 6 31 5 15 10 51 10 81 0 53 0 53
53 91 109 78 218 184 189 184 -5 0 -49 -31 -98 -70 -49 -38 -94 -70 -100 -70
-6 0 -17 -7 -24 -15 -7 -8 -19 -15 -26 -15 -34 0 -7 33 85 104 107 82 295 274
339 345 15 25 41 58 57 75 53 53 145 203 145 236 0 24 -20 6 -54 -50 -90 -145
-309 -396 -443 -507 -103 -85 -211 -156 -225 -147 -13 9 -3 19 95 92 165 124
402 387 542 600 75 115 133 233 196 404 48 128 51 129 86 49z m-962 -111 c40
-44 25 -218 -30 -337 -50 -111 -110 -186 -217 -275 -189 -156 -317 -238 -398
-254 -24 -5 -30 -3 -30 10 0 37 27 61 166 152 79 52 144 100 144 106 0 14 -11
9 -167 -77 -99 -55 -139 -73 -147 -65 -12 13 -6 18 104 98 78 56 180 153 180
171 0 13 -4 11 -151 -95 -47 -34 -101 -69 -118 -79 -31 -15 -33 -15 -29 1 2
10 46 48 97 86 113 81 181 145 181 171 0 15 -13 9 -62 -32 -144 -117 -289
-201 -276 -160 2 8 51 50 109 94 107 81 309 276 414 399 63 74 116 105 176
106 24 0 42 -7 54 -20z m143 -470 c61 -58 -3 -291 -114 -412 -55 -60 -192
-155 -292 -200 -58 -26 -163 -56 -276 -77 -50 -9 -81 5 -70 33 3 8 55 36 115
62 113 50 175 92 168 111 -3 8 -47 -6 -123 -38 -65 -27 -130 -49 -145 -49
l-26 1 23 19 c12 10 60 39 106 64 84 46 197 137 178 144 -6 2 -51 -20 -101
-48 -109 -62 -241 -122 -241 -111 0 14 31 36 135 96 171 99 286 185 395 295
58 59 115 112 125 118 34 20 118 15 143 -8z m639 -407 c-6 -73 -40 -202 -66
-252 -7 -12 -48 -61 -92 -108 -83 -92 -89 -119 -16 -82 21 11 41 18 45 15 17
-17 -141 -187 -203 -219 -22 -11 -62 -21 -90 -23 -27 -1 -53 -3 -57 -3 -19 -2
-5 -31 17 -37 33 -8 32 -16 -9 -52 -32 -28 -275 -132 -309 -132 -19 0 -59 49
-51 61 3 5 27 20 54 34 52 26 71 45 46 45 -27 0 -17 14 35 50 29 19 47 36 42
37 -5 2 -37 -3 -71 -11 -34 -8 -62 -11 -62 -7 0 5 35 24 78 43 164 74 340 201
404 291 32 45 14 43 -49 -5 -32 -25 -78 -58 -103 -75 -61 -41 -297 -160 -335
-168 l-30 -6 26 24 c14 13 57 36 95 52 99 41 323 196 427 295 49 46 127 135
174 197 46 62 89 113 95 113 7 0 9 -26 5 -77z m-772 -218 c85 -35 71 -179 -26
-270 -112 -104 -254 -142 -499 -132 -142 6 -210 19 -210 41 0 10 32 15 126 20
133 7 153 12 222 52 51 30 51 41 0 20 -42 -18 -201 -31 -252 -22 -20 4 -36 13
-36 20 0 18 39 33 139 52 110 20 233 66 218 80 -1 2 -45 -6 -97 -16 -103 -21
-210 -26 -210 -10 0 15 34 27 130 46 98 19 231 64 310 105 63 32 130 37 185
14z m-605 -469 c36 -8 110 -20 165 -26 177 -19 287 -91 336 -219 28 -73 34
-126 20 -178 -15 -57 -39 -83 -83 -89 -35 -6 -41 -3 -110 63 -62 59 -96 81
-213 138 -183 88 -284 159 -261 182 3 3 24 -2 49 -12 24 -9 63 -15 88 -13 l44
3 -79 38 c-44 20 -76 40 -73 43 3 3 43 1 88 -5 45 -6 95 -11 111 -11 52 0 28
18 -47 35 -41 9 -77 21 -81 26 -3 6 -17 14 -30 19 -27 11 -33 34 -6 26 9 -3
46 -12 82 -20z m530 -86 c0 -5 -4 -10 -10 -10 -5 0 -10 5 -10 10 0 6 5 10 10
10 6 0 10 -4 10 -10z m-643 -174 c43 -30 138 -84 210 -120 110 -54 138 -73
163 -108 62 -85 77 -220 34 -303 -21 -41 -22 -41 -125 -59 l-36 -6 -89 117
c-49 65 -136 168 -195 229 -120 124 -147 160 -132 175 6 6 21 -1 44 -21 39
-35 137 -86 146 -76 4 3 -13 27 -37 51 -24 25 -41 45 -37 45 4 0 30 -11 57
-25 57 -29 70 -31 70 -10 0 8 -21 29 -47 46 -58 40 -123 98 -123 110 0 18 20
8 97 -45z m-86 -273 c163 -168 262 -328 261 -421 -1 -52 -30 -119 -66 -152
-25 -23 -29 -23 -74 -11 -26 6 -54 20 -63 29 -9 9 -40 85 -69 167 -54 154 -90
232 -160 344 -58 94 -49 106 23 30 63 -67 113 -106 123 -96 3 3 -11 23 -30 45
-20 22 -36 42 -36 45 0 4 23 -8 50 -25 28 -17 53 -28 56 -25 3 3 -26 40 -65
81 -69 73 -90 107 -53 87 9 -5 56 -49 103 -98z m-121 16 c0 -6 -4 -7 -10 -4
-5 3 -10 11 -10 16 0 6 5 7 10 4 6 -3 10 -11 10 -16z m-45 -169 c25 -43 64
-131 85 -196 53 -156 52 -223 -1 -273 -29 -27 -99 -29 -122 -3 -9 10 -26 75
-41 158 -16 88 -39 174 -61 228 -39 97 -39 96 -25 96 5 0 36 -41 70 -92 53
-81 60 -88 60 -61 0 16 -18 65 -41 107 -22 43 -39 80 -36 82 2 3 32 -36 66
-86 34 -49 64 -90 66 -90 7 0 -31 92 -65 160 -16 33 -30 62 -30 66 0 18 34
-26 75 -96z m-255 -56 c0 -8 -5 -12 -10 -9 -6 4 -8 11 -5 16 9 14 15 11 15 -7z"/>
<path d="M5934 3438 c-20 -40 -52 -95 -72 -121 -23 -32 -31 -52 -25 -58 17
-17 70 38 102 105 29 59 51 146 37 146 -3 0 -22 -33 -42 -72z"/>
<path d="M5337 2513 c-12 -11 -8 -58 7 -78 13 -18 14 -18 25 3 14 27 14 55 -1
70 -14 14 -22 15 -31 5z"/>
<path d="M5390 2096 c0 -21 21 -76 29 -76 11 0 41 35 41 47 0 15 -34 43 -53
43 -9 0 -17 -6 -17 -14z"/>
<path d="M5307 1689 c-21 -12 -22 -42 -1 -60 13 -10 17 -10 25 2 11 17 12 56
1 63 -4 2 -15 0 -25 -5z"/>
<path d="M5114 1367 c-7 -20 3 -37 22 -37 18 0 18 24 -1 40 -12 10 -16 9 -21
-3z"/>
<path d="M4896 1125 c-4 -11 1 -15 19 -15 16 0 25 6 25 15 0 8 -9 15 -19 15
-10 0 -21 -7 -25 -15z"/>
<path d="M4960 581 c0 -16 61 -81 76 -81 25 0 15 17 -31 54 -25 21 -45 33 -45
27z"/>
<path d="M6440 2707 c-22 -30 -40 -58 -40 -62 0 -14 70 58 86 88 24 46 -3 30
-46 -26z"/>
<path d="M6075 3073 c-12 -87 -34 -150 -76 -212 -23 -34 -39 -64 -36 -68 8 -7
74 45 96 76 25 35 51 125 51 177 0 83 -25 102 -35 27z"/>
<path d="M6017 3019 c-21 -31 -39 -89 -28 -89 13 0 53 79 49 98 -3 14 -7 13
-21 -9z"/>
<path d="M6230 2631 c0 -65 -35 -142 -95 -209 -62 -68 -71 -91 -26 -68 74 39
154 180 149 262 -4 60 -28 73 -28 15z"/>
<path d="M6126 2517 c-29 -38 -32 -49 -13 -41 15 6 51 63 44 70 -3 3 -17 -10
-31 -29z"/>
<path d="M6110 1967 c-36 -34 -91 -75 -122 -92 -32 -16 -58 -33 -58 -37 0 -8
38 -3 105 14 43 11 103 66 131 119 30 60 10 58 -56 -4z"/>
<path d="M6030 1988 c-36 -25 -50 -48 -28 -48 13 1 78 54 78 65 0 11 -18 4
-50 -17z"/>
<path d="M5985 1362 c-21 -15 -36 -40 -27 -46 10 -6 52 30 52 44 0 12 -11 13
-25 2z"/>
<path d="M6002 1294 c-42 -35 -55 -64 -28 -64 26 0 89 80 74 95 -2 2 -22 -12
-46 -31z"/>
<path d="M5830 1024 c0 -75 -26 -104 -91 -104 -51 0 -63 -12 -30 -30 33 -17
66 -11 94 18 32 34 55 120 39 148 -9 16 -11 10 -12 -32z"/>
<path d="M5754 1005 c-7 -17 4 -37 17 -30 12 8 12 45 -1 45 -6 0 -13 -7 -16
-15z"/>
<path d="M5503 728 c-23 -11 -32 -38 -14 -38 6 0 23 11 38 25 30 26 17 33 -24
13z"/>
<path d="M5540 691 c-13 -11 -44 -22 -67 -26 -24 -3 -43 -10 -43 -14 0 -15 37
-41 59 -41 27 0 81 54 81 81 0 23 1 23 -30 0z"/>
<path d="M5217 673 c-14 -13 -6 -24 15 -21 27 4 36 28 11 28 -11 0 -23 -3 -26
-7z"/>
<path d="M5233 593 c-49 -17 -58 -43 -15 -43 28 0 72 31 72 50 0 12 -5 12 -57
-7z"/>
<path d="M2014 5741 c-101 -75 -236 -284 -263 -409 -5 -23 -27 -73 -50 -110
-22 -37 -45 -92 -52 -122 -6 -30 -28 -82 -49 -115 -67 -108 -100 -175 -132
-268 -30 -86 -32 -101 -32 -227 0 -74 3 -154 8 -176 7 -37 3 -52 -34 -134 -23
-51 -59 -138 -81 -194 l-40 -100 7 -182 7 -182 -40 -61 c-86 -127 -80 -309 17
-536 21 -49 43 -117 50 -150 6 -33 29 -114 50 -180 24 -76 40 -150 44 -202 8
-107 48 -263 86 -336 19 -37 30 -72 30 -100 0 -90 83 -211 207 -304 104 -76
154 -103 330 -173 l148 -59 6 -93 c4 -77 10 -102 34 -145 34 -64 68 -79 161
-69 57 6 64 5 65 -11 0 -10 0 -70 -1 -134 -1 -113 0 -117 27 -149 37 -45 96
-70 164 -70 l57 0 7 -67 c9 -87 23 -121 68 -160 49 -43 87 -49 154 -27 36 12
58 15 67 9 7 -6 32 -25 56 -42 41 -32 47 -33 132 -33 64 0 95 -4 113 -16 17
-11 35 -14 62 -9 75 13 97 47 123 196 28 155 39 186 72 214 43 36 85 40 195
16 54 -12 131 -21 171 -21 65 0 75 3 103 28 45 40 35 65 -65 165 -72 72 -85
90 -91 128 -10 62 -38 122 -83 179 -37 46 -39 53 -45 139 -7 98 -33 180 -69
218 -13 14 -53 45 -90 68 -130 85 -175 151 -166 246 5 45 10 54 75 117 54 52
74 78 86 117 56 176 8 375 -137 570 -59 78 -360 356 -501 461 -172 129 -266
217 -400 372 -115 135 -148 182 -237 337 -235 412 -293 570 -329 894 -14 129
-7 300 15 406 8 39 36 129 61 200 26 72 56 158 68 192 l21 63 -29 30 c-38 39
-78 40 -131 1z m26 -192 c0 -7 -13 -54 -30 -104 -44 -140 -74 -362 -67 -510
17 -371 164 -756 465 -1213 105 -159 219 -273 512 -511 107 -87 240 -195 295
-240 132 -107 244 -240 300 -356 78 -161 95 -274 56 -376 -25 -65 -42 -84 -91
-96 -53 -14 -73 -57 -78 -169 -6 -139 24 -187 186 -299 55 -38 108 -82 118
-99 12 -21 19 -62 24 -136 6 -106 6 -107 47 -156 60 -72 80 -117 107 -236 4
-17 21 -35 49 -52 71 -41 118 -114 91 -141 -29 -28 -207 -10 -284 30 -43 22
-119 29 -150 13 -37 -19 -67 -89 -100 -238 -33 -145 -51 -187 -93 -210 -25
-14 -28 -14 -56 15 l-30 30 29 144 c31 152 62 257 67 230 2 -9 -1 -36 -6 -60
-18 -78 6 -65 54 31 25 51 48 90 51 87 2 -2 0 -16 -6 -31 -5 -15 -10 -37 -10
-49 1 -21 1 -21 15 -3 27 36 83 236 66 236 -4 0 -15 -13 -24 -30 -24 -40 -61
-48 -106 -24 -69 37 -80 118 -31 222 35 74 34 72 16 97 -13 18 -17 16 -71 -33
-31 -29 -65 -52 -75 -52 -11 0 -35 14 -55 31 -32 28 -35 36 -35 86 0 43 9 73
40 141 35 74 39 88 26 100 -12 12 -20 6 -55 -42 -48 -65 -66 -69 -116 -25 -90
79 -90 165 0 275 33 41 44 77 27 88 -5 3 -33 -1 -63 -9 -51 -14 -54 -13 -76 7
-13 12 -35 46 -49 75 -21 42 -25 61 -20 95 9 58 44 117 85 145 30 20 42 22 98
17 53 -6 63 -4 63 9 0 9 -15 20 -37 28 -86 28 -132 91 -133 182 0 56 15 90 63
136 43 41 68 38 126 -14 21 -19 41 -35 45 -35 3 0 6 16 6 35 0 27 -9 44 -40
75 -22 22 -52 42 -67 45 -130 28 -417 261 -566 460 -89 119 -134 218 -142 313
-9 115 -16 153 -26 146 -11 -7 -11 -164 1 -224 11 -59 -3 -75 -57 -65 -27 5
-50 20 -82 53 -51 55 -125 161 -117 169 3 3 26 -2 52 -11 25 -8 51 -13 56 -10
12 8 -8 32 -35 40 -12 4 -45 22 -73 41 -43 28 -63 53 -117 145 -36 61 -64 115
-61 120 3 5 22 6 42 3 40 -6 41 -7 -31 40 -50 33 -155 234 -146 279 4 15 8 14
38 -9 19 -14 43 -25 54 -25 13 0 4 14 -36 50 -36 33 -63 69 -81 108 -27 63
-70 247 -64 283 3 20 6 19 48 -15 25 -19 47 -31 48 -25 2 5 -17 41 -42 79 -61
90 -76 136 -76 231 0 72 14 212 26 252 9 29 21 19 33 -27 6 -25 15 -47 20 -50
4 -3 11 41 14 97 6 113 25 176 80 267 48 80 167 171 167 129z m-386 -773 c7
-152 51 -440 82 -540 4 -11 2 -16 -4 -12 -5 3 -18 38 -28 78 -21 85 -32 64
-14 -26 54 -276 207 -644 389 -941 58 -94 73 -135 51 -135 -11 0 -62 68 -145
193 -32 48 -60 85 -63 83 -10 -11 61 -140 151 -276 54 -79 97 -151 97 -159 0
-9 -23 8 -55 39 -91 90 -58 12 44 -105 64 -73 65 -85 7 -85 -41 0 -48 4 -89
53 -82 96 -147 188 -141 198 4 6 13 4 23 -5 10 -9 28 -16 41 -16 20 0 21 2 9
16 -8 9 -46 41 -85 70 -40 29 -86 72 -102 96 -33 48 -82 142 -82 157 0 5 21 1
46 -10 25 -12 48 -18 51 -15 4 3 4 7 2 9 -45 31 -175 159 -188 186 -29 58 -73
173 -68 178 3 2 28 -7 56 -21 28 -15 51 -24 51 -20 0 3 -19 28 -43 54 -70 78
-102 150 -131 294 -14 71 -26 133 -26 138 0 19 32 6 70 -28 22 -20 42 -35 45
-33 2 3 -14 34 -37 69 -22 36 -52 94 -65 130 -22 57 -24 75 -19 145 10 134 28
184 118 328 17 26 33 47 38 47 4 0 10 -60 14 -134z m160 -758 c65 -184 149
-358 270 -556 77 -127 96 -172 69 -172 -13 0 -233 415 -293 554 -53 121 -120
310 -120 338 0 31 22 -19 74 -164z m-330 -38 c53 -204 98 -329 203 -560 76
-167 92 -192 242 -394 61 -83 108 -152 105 -155 -7 -7 -93 85 -168 179 -109
135 -220 317 -291 477 -51 113 -60 125 -39 52 52 -175 178 -399 359 -634 96
-126 120 -163 111 -172 -3 -3 -13 4 -23 16 -126 152 -160 190 -171 195 -30 13
48 -98 144 -206 33 -38 45 -63 59 -120 16 -64 59 -198 80 -250 16 -39 -22 -14
-111 74 -52 50 -94 98 -94 106 0 8 9 16 20 19 24 6 27 23 4 23 -30 0 -86 33
-140 83 -66 60 -69 77 -14 77 22 0 40 5 40 11 0 5 -28 23 -62 39 -81 37 -136
97 -198 219 -20 40 -20 43 -3 36 60 -25 73 -28 80 -21 4 5 -5 18 -21 30 -71
51 -110 94 -141 156 -45 88 -108 300 -89 300 3 0 22 -10 41 -21 41 -25 50 -21
25 12 -32 41 -51 85 -68 156 -13 58 -14 82 -4 161 11 89 34 173 60 222 19 35
33 9 64 -110z m-120 -672 c129 -341 288 -581 563 -848 70 -69 158 -148 195
-175 64 -47 85 -71 73 -83 -12 -12 -219 144 -329 248 -86 82 -243 272 -327
396 -38 56 -54 74 -57 61 -5 -24 72 -156 123 -213 22 -24 51 -63 65 -86 34
-57 289 -311 378 -378 39 -30 72 -60 72 -67 0 -7 -3 -13 -6 -13 -14 0 -106 59
-177 114 -42 32 -79 57 -82 54 -11 -10 49 -71 141 -144 l91 -73 11 -68 c5 -37
13 -76 17 -85 11 -27 -14 -22 -69 12 -46 30 -48 32 -31 50 25 27 11 40 -44 40
-44 0 -93 24 -144 70 -5 4 9 17 29 29 30 18 35 24 23 32 -8 5 -23 9 -33 9 -33
0 -144 60 -171 92 -14 17 -35 48 -46 69 l-19 39 50 0 c27 0 50 4 50 8 0 5 -38
26 -85 47 -136 60 -219 169 -259 339 l-7 28 44 -36 c39 -32 77 -47 77 -30 0 3
-24 27 -52 54 -61 56 -128 177 -154 280 -22 86 -14 231 16 290 11 22 24 40 28
40 4 0 25 -46 46 -102z m1042 -83 c27 -16 59 -49 86 -87 59 -88 233 -257 375
-366 122 -92 140 -109 130 -119 -15 -14 -86 27 -205 117 -90 68 -132 94 -132
83 0 -24 100 -118 198 -186 79 -56 98 -77 69 -77 -8 0 -73 41 -146 91 -73 50
-136 88 -139 84 -12 -12 238 -225 264 -225 11 0 24 -22 24 -41 0 -17 -16 -10
-164 72 -210 115 -209 90 1 -43 120 -76 137 -90 148 -126 4 -16 2 -24 -10 -28
-65 -25 -468 263 -559 401 -84 126 -132 275 -124 387 6 80 27 102 92 94 26 -3
68 -17 92 -31z m-158 -449 c15 -8 61 -51 102 -97 41 -45 118 -115 171 -155 94
-70 308 -204 325 -204 17 0 69 -48 61 -56 -8 -9 -191 79 -291 139 -33 20 -64
33 -70 30 -15 -10 62 -72 155 -127 141 -81 166 -100 146 -104 -22 -4 -101 21
-196 65 -41 18 -78 30 -83 25 -14 -14 33 -48 132 -96 52 -26 106 -52 120 -59
31 -16 40 -56 13 -58 -59 -4 -265 47 -337 83 -147 74 -336 218 -336 257 0 9
-6 25 -14 36 -7 11 -26 55 -41 97 -33 94 -33 200 0 224 24 18 108 18 143 0z
m-696 -437 c106 -147 237 -272 401 -383 78 -52 160 -102 183 -110 60 -21 118
-52 135 -72 13 -16 12 -17 -16 -10 -82 21 -312 147 -431 237 -69 52 -88 57
-60 15 51 -78 233 -212 389 -286 48 -23 87 -46 87 -51 0 -11 3 -12 -59 7 -29
8 -57 14 -62 12 -5 -2 14 -21 43 -42 42 -32 49 -40 34 -46 -22 -7 -12 -17 52
-49 47 -24 54 -47 22 -76 -24 -21 -31 -20 -185 40 -143 55 -210 109 -160 129
8 3 15 12 15 20 0 9 -18 16 -57 21 -81 9 -135 38 -194 103 -60 67 -104 130
-96 138 3 3 24 -4 47 -16 29 -15 46 -18 53 -11 6 6 -16 36 -69 91 -93 96 -95
99 -134 218 -32 100 -43 228 -17 220 6 -3 42 -47 79 -99z m884 -218 c111 -48
229 -86 314 -100 102 -18 110 -20 110 -36 0 -22 -92 -19 -210 5 -52 10 -96 18
-98 15 -15 -15 95 -52 263 -90 78 -17 110 -39 85 -56 -20 -14 -217 -3 -269 15
-63 21 -48 -2 22 -35 56 -26 78 -30 190 -36 95 -4 127 -9 127 -19 0 -26 -38
-33 -215 -39 -143 -6 -195 -4 -251 8 -141 30 -271 120 -310 212 -32 77 -15
157 38 180 56 24 107 18 204 -24z m502 -433 c-7 -21 -109 -68 -148 -69 -19 0
-44 -4 -55 -9 -55 -22 66 -24 184 -3 52 9 30 -13 -48 -50 l-66 -31 43 -4 c24
-2 64 3 88 12 24 8 46 11 49 6 13 -21 -99 -97 -253 -172 -140 -69 -171 -89
-233 -148 -55 -53 -75 -67 -92 -62 -100 25 -125 159 -57 298 58 119 154 174
345 199 66 8 145 21 175 29 72 18 72 18 68 4z m-598 -92 c0 -11 -19 -15 -25
-6 -3 5 1 10 9 10 9 0 16 -2 16 -4z m710 -136 c0 -9 -49 -51 -129 -112 -85
-64 -58 -79 39 -22 34 20 64 34 66 31 3 -2 -20 -27 -51 -55 -30 -28 -55 -54
-55 -57 0 -23 97 26 157 78 28 24 34 26 39 13 9 -24 -19 -61 -126 -166 -53
-52 -123 -133 -155 -179 -32 -46 -75 -101 -96 -123 -37 -40 -40 -40 -94 -36
-96 8 -132 65 -122 192 10 135 51 191 182 252 38 18 128 69 199 113 131 81
146 89 146 71z m110 -219 c0 -5 -32 -44 -70 -86 -39 -43 -68 -80 -66 -83 6 -5
77 38 116 72 23 19 24 19 9 1 -8 -11 -32 -40 -53 -63 -21 -24 -35 -46 -32 -49
9 -10 59 28 118 91 32 33 60 57 63 54 4 -4 -22 -55 -56 -115 -78 -134 -106
-198 -153 -340 -21 -62 -45 -122 -54 -133 -9 -10 -38 -25 -64 -32 -45 -11 -49
-11 -74 12 -41 39 -66 97 -66 153 1 107 126 297 301 460 76 69 81 73 81 58z
m84 -232 c-38 -77 -71 -161 -56 -144 5 6 33 45 61 87 69 100 94 120 49 38 -37
-66 -72 -159 -64 -167 2 -2 32 36 66 86 34 50 66 91 70 91 5 0 -9 -50 -31
-112 -23 -63 -49 -165 -60 -233 -12 -69 -27 -127 -36 -137 -33 -37 -134 -12
-153 38 -25 64 4 199 75 360 26 58 104 178 112 171 2 -3 -12 -38 -33 -78z"/>
<path d="M2424 3470 c11 -75 72 -187 116 -210 31 -17 31 5 0 48 -16 22 -45 71
-64 109 -51 99 -59 107 -52 53z"/>
<path d="M3027 2513 c-11 -10 -8 -52 4 -74 14 -27 39 -7 39 30 0 36 -25 62
-43 44z"/>
<path d="M2948 2084 c-13 -28 -1 -59 23 -59 17 0 43 51 35 71 -9 24 -45 16
-58 -12z"/>
<path d="M3064 1685 c-9 -22 5 -67 19 -62 19 6 21 63 2 71 -9 3 -18 0 -21 -9z"/>
<path d="M3257 1364 c-14 -14 -7 -35 11 -32 9 2 17 10 17 17 0 16 -18 25 -28
15z"/>
<path d="M3462 1128 c3 -7 15 -15 28 -16 21 -3 22 -2 11 12 -16 19 -44 21 -39
4z"/>
<path d="M3380 544 c-17 -20 -29 -39 -26 -41 9 -9 76 47 76 63 0 23 -16 16
-50 -22z"/>
<path d="M1914 2733 c16 -31 76 -92 76 -77 -1 15 -69 104 -80 104 -6 0 -4 -12
4 -27z"/>
<path d="M2300 3033 c0 -108 18 -152 85 -211 26 -23 50 -40 53 -37 3 2 -14 33
-37 68 -47 72 -67 127 -76 210 -10 87 -25 68 -25 -30z"/>
<path d="M2360 3024 c0 -22 39 -89 47 -81 8 9 -16 74 -33 87 -11 10 -14 9 -14
-6z"/>
<path d="M2145 2669 c-13 -21 -7 -104 11 -149 26 -66 77 -132 122 -158 53 -29
61 -14 16 29 -20 19 -54 60 -75 92 -33 47 -41 68 -46 122 -6 65 -15 86 -28 64z"/>
<path d="M2240 2547 c0 -14 28 -63 44 -76 13 -11 16 -11 16 3 0 16 -59 88 -60
73z"/>
<path d="M2220 2013 c0 -29 59 -113 97 -139 31 -21 149 -52 159 -41 3 2 -28
23 -68 45 -40 23 -99 67 -131 99 -46 47 -57 53 -57 36z"/>
<path d="M2350 1975 c33 -34 66 -47 58 -22 -5 14 -66 57 -81 57 -6 0 4 -16 23
-35z"/>
<path d="M2390 1363 c0 -11 12 -26 33 -42 15 -12 17 -11 17 2 0 9 -7 23 -16
31 -16 17 -34 21 -34 9z"/>
<path d="M2350 1312 c0 -23 49 -82 69 -82 27 0 18 25 -23 64 -43 40 -46 41
-46 18z"/>
<path d="M2554 1008 c9 -67 47 -128 81 -128 28 0 75 20 75 32 0 4 -21 8 -47 8
-27 0 -53 4 -59 8 -20 13 -34 50 -34 91 0 24 -5 41 -11 41 -8 0 -9 -16 -5 -52z"/>
<path d="M2620 996 c0 -8 5 -18 10 -21 6 -3 10 3 10 14 0 12 -4 21 -10 21 -5
0 -10 -6 -10 -14z"/>
<path d="M2860 730 c0 -14 49 -44 58 -35 4 3 -4 15 -17 26 -26 21 -41 24 -41
9z"/>
<path d="M2820 716 c0 -20 35 -88 51 -96 38 -21 89 -6 89 26 0 6 -17 15 -37
19 -20 3 -51 18 -70 32 -18 14 -33 23 -33 19z"/>
<path d="M3135 680 c-10 -16 4 -30 31 -30 29 0 31 15 5 30 -24 12 -28 13 -36
0z"/>
<path d="M3110 600 c0 -21 42 -51 67 -48 43 5 37 25 -13 42 -56 19 -54 19 -54
6z"/>
</g>
</svg>
